<svg width="441" height="292" viewBox="0 0 441 292" fill="none" xmlns="http://www.w3.org/2000/svg">
<line x1="1.3418" y1="48.9058" x2="439.342" y2="48.9058" stroke="#CCCBCB"/>
<line x1="1.3418" y1="94.9058" x2="439.342" y2="94.9058" stroke="#CCCBCB"/>
<line x1="1.3418" y1="140.906" x2="439.342" y2="140.906" stroke="#CCCBCB"/>
<line x1="1.3418" y1="186.906" x2="439.342" y2="186.906" stroke="#CCCBCB"/>
<line x1="1.3418" y1="232.906" x2="439.342" y2="232.906" stroke="#CCCBCB"/>
<rect x="18.3418" y="184.438" width="50" height="106" rx="12.8222" fill="#FF2F2F"/>
<rect x="98.3418" y="94.4385" width="50" height="196" rx="12.8222" fill="#0C8E09"/>
<rect x="178.342" y="119.438" width="50" height="171" rx="12.8222" fill="#FED70A"/>
<rect x="258.342" y="63.4385" width="50" height="227" rx="12.8222" fill="#0C8E09"/>
<rect x="338.342" y="124.438" width="50" height="166" rx="12.8222" fill="#FED70A"/>
<path d="M1.3418 290.432H0.341797V291.432H1.3418V290.432ZM439.342 291.432C439.894 291.432 440.342 290.984 440.342 290.432C440.342 289.879 439.894 289.432 439.342 289.432V291.432ZM0.341797 0.405762V290.432H2.3418V0.405762H0.341797ZM1.3418 291.432H439.342V289.432H1.3418V291.432Z" fill="#808080"/>
</svg>
