<svg width="24" height="25" viewBox="0 0 24 25" fill="none" xmlns="http://www.w3.org/2000/svg">
<path d="M5.25 11.75H20.25C20.4489 11.75 20.6397 11.829 20.7803 11.9697C20.921 12.1103 21 12.3011 21 12.5C21 12.6989 20.921 12.8897 20.7803 13.0303C20.6397 13.171 20.4489 13.25 20.25 13.25H5.25C5.05109 13.25 4.86032 13.171 4.71967 13.0303C4.57902 12.8897 4.5 12.6989 4.5 12.5C4.5 12.3011 4.57902 12.1103 4.71967 11.9697C4.86032 11.829 5.05109 11.75 5.25 11.75Z" fill="black"/>
<path d="M5.56086 12.5L11.7814 18.719C11.9222 18.8598 12.0013 19.0508 12.0013 19.25C12.0013 19.4491 11.9222 19.6401 11.7814 19.781C11.6405 19.9218 11.4495 20.0009 11.2504 20.0009C11.0512 20.0009 10.8602 19.9218 10.7194 19.781L3.96936 13.031C3.89952 12.9613 3.84411 12.8785 3.8063 12.7874C3.76849 12.6963 3.74902 12.5986 3.74902 12.5C3.74902 12.4013 3.76849 12.3036 3.8063 12.2125C3.84411 12.1214 3.89952 12.0386 3.96936 11.969L10.7194 5.21897C10.8602 5.07814 11.0512 4.99902 11.2504 4.99902C11.4495 4.99902 11.6405 5.07814 11.7814 5.21897C11.9222 5.3598 12.0013 5.55081 12.0013 5.74997C12.0013 5.94913 11.9222 6.14014 11.7814 6.28097L5.56086 12.5Z" fill="black"/>
</svg>
