<svg width="26" height="26" viewBox="0 0 26 26" fill="none" xmlns="http://www.w3.org/2000/svg">
<path d="M19.5918 0.5C19.2603 0.5 18.9423 0.631696 18.7079 0.866116C18.4735 1.10054 18.3418 1.41848 18.3418 1.75C18.3418 2.08152 18.4735 2.39946 18.7079 2.63388C18.9423 2.8683 19.2603 3 19.5918 3H21.5743L16.208 8.36625C15.9803 8.602 15.8544 8.91776 15.8572 9.2455C15.8601 9.57325 15.9915 9.88676 16.2233 10.1185C16.455 10.3503 16.7685 10.4817 17.0963 10.4846C17.424 10.4874 17.7398 10.3614 17.9755 10.1337L23.3418 4.7675V6.75C23.3418 7.08152 23.4735 7.39946 23.7079 7.63388C23.9423 7.8683 24.2603 8 24.5918 8C24.9233 8 25.2413 7.8683 25.4757 7.63388C25.7101 7.39946 25.8418 7.08152 25.8418 6.75V1.75C25.8418 1.41848 25.7101 1.10054 25.4757 0.866116C25.2413 0.631696 24.9233 0.5 24.5918 0.5H19.5918ZM3.3418 21.2325V19.25C3.3418 18.9185 3.2101 18.6005 2.97568 18.3661C2.74126 18.1317 2.42332 18 2.0918 18C1.76028 18 1.44233 18.1317 1.20791 18.3661C0.973493 18.6005 0.841797 18.9185 0.841797 19.25V24.25C0.841797 24.5815 0.973493 24.8995 1.20791 25.1339C1.44233 25.3683 1.76028 25.5 2.0918 25.5H7.0918C7.42332 25.5 7.74126 25.3683 7.97568 25.1339C8.2101 24.8995 8.3418 24.5815 8.3418 24.25C8.3418 23.9185 8.2101 23.6005 7.97568 23.3661C7.74126 23.1317 7.42332 23 7.0918 23H5.1093L10.4755 17.6337C10.7032 17.398 10.8292 17.0822 10.8264 16.7545C10.8235 16.4268 10.6921 16.1132 10.4603 15.8815C10.2286 15.6497 9.91504 15.5183 9.5873 15.5154C9.25955 15.5126 8.9438 15.6386 8.70805 15.8663L3.3418 21.2325Z" fill="black"/>
</svg>
