<svg width="244" height="53" viewBox="0 0 244 53" fill="none" xmlns="http://www.w3.org/2000/svg">
<path d="M0.422363 13.4077L22.6521 0.413803H243.072L225.715 23.8945L243.016 52.1485H22.6521L0.422363 38.26L20.2023 24.5936L0.422363 13.4077Z" fill="#003F7D"/>
<path d="M51.4972 34.2014C51.6147 34.2014 51.7321 34.084 51.8496 33.8491C51.967 33.6142 52.0257 33.2283 52.0257 32.6914V20.6106C52.0257 20.0737 51.967 19.6962 51.8496 19.478C51.7321 19.2431 51.6147 19.1173 51.4972 19.1005H60.9101C62.2189 19.1005 63.2424 19.2515 63.9806 19.5535C64.7189 19.8556 65.2391 20.2918 65.5411 20.8623C65.8431 21.416 65.9941 22.0704 65.9941 22.8254C65.9941 23.4295 65.885 23.9412 65.6669 24.3607C65.4656 24.7634 65.2055 25.0822 64.8867 25.3171C64.5679 25.552 64.2491 25.7281 63.9303 25.8456V25.8959C65.0209 26.1476 65.8431 26.6006 66.3968 27.255C66.9505 27.8926 67.2273 28.7483 67.2273 29.8222C67.2273 30.5437 67.0847 31.24 66.7995 31.9111C66.5142 32.5823 65.9857 33.136 65.2139 33.5722C64.4588 33.9917 63.3598 34.2014 61.9169 34.2014H51.4972ZM56.9084 31.4078H60.6836C61.64 31.4078 62.3195 31.2735 62.7222 31.0051C63.1417 30.7198 63.3514 30.2668 63.3514 29.646C63.3514 29.0587 63.1249 28.6057 62.6719 28.2869C62.2189 27.9513 61.4722 27.7836 60.4319 27.7836H56.9335C56.4302 27.7836 56.1282 27.8171 56.0275 27.8842C55.9436 27.9513 55.9016 28.1779 55.9016 28.5638V30.6527C55.9016 31.0219 55.9436 31.24 56.0275 31.3071C56.1282 31.3742 56.4218 31.4078 56.9084 31.4078ZM56.9335 25.2164H59.9034C60.7088 25.2164 61.2793 25.0822 61.6148 24.8137C61.9672 24.5285 62.1434 24.109 62.1434 23.5553C62.1434 23.0016 61.9756 22.5905 61.64 22.322C61.3212 22.0536 60.7507 21.9194 59.9286 21.9194H56.9084C56.405 21.9194 56.1114 21.9529 56.0275 22.02C55.9436 22.0704 55.9016 22.2885 55.9016 22.6744V24.4613C55.9016 24.8305 55.9436 25.0486 56.0275 25.1157C56.1282 25.1828 56.4302 25.2164 56.9335 25.2164ZM68.7394 34.2014C68.8569 34.2014 68.9743 34.084 69.0918 33.8491C69.2092 33.6142 69.2679 33.2283 69.2679 32.6914V20.6106C69.2679 20.0737 69.2092 19.6962 69.0918 19.478C68.9743 19.2431 68.8569 19.1173 68.7394 19.1005H83.4376V19.8556L83.941 22.7751C83.5215 22.5905 82.7833 22.3976 81.7262 22.1962C80.6691 21.9781 79.3939 21.869 77.9006 21.869H74.1757C73.6724 21.869 73.3704 21.911 73.2697 21.9949C73.1858 22.062 73.1438 22.2717 73.1438 22.6241V24.4865C73.1438 24.8556 73.1858 25.0738 73.2697 25.1409C73.3704 25.208 73.664 25.2416 74.1506 25.2416H77.7748C78.748 25.2416 79.5282 25.1912 80.1154 25.0906C80.7195 24.9731 81.1138 24.8556 81.2983 24.7382C81.2312 25.057 81.1557 25.4261 81.0718 25.8456C80.9879 26.2651 80.9208 26.6678 80.8705 27.0537C80.8201 27.4396 80.795 27.7584 80.795 28.0101H74.1506C73.664 28.0101 73.3704 28.0436 73.2697 28.1107C73.1858 28.1611 73.1438 28.3792 73.1438 28.7651V30.6276C73.1438 31.0135 73.1858 31.24 73.2697 31.3071C73.3536 31.3742 73.6472 31.4078 74.1506 31.4078H80.946C81.9192 31.4078 82.6994 31.2987 83.2866 31.0806C83.8907 30.8457 84.285 30.6192 84.4695 30.401L83.9662 33.4212V34.2014H68.7394ZM94.1168 34.4531C91.2309 34.4531 89.0664 33.8323 87.6234 32.5907C86.1972 31.3323 85.4841 29.3524 85.4841 26.651C85.4841 25.0906 85.7778 23.7315 86.365 22.5737C86.9523 21.3992 87.8835 20.4848 89.1587 19.8304C90.4339 19.176 92.0866 18.8488 94.1168 18.8488C95.7108 18.8488 97.0363 18.9327 98.0934 19.1005C99.1505 19.2683 99.8636 19.4361 100.233 19.6039V20.3589L100.736 23.1274C100.417 22.9093 99.9391 22.6828 99.3015 22.4479C98.6807 22.213 97.934 22.02 97.0615 21.869C96.189 21.7012 95.2242 21.6173 94.1672 21.6173C93.0094 21.6173 92.0698 21.8019 91.3483 22.171C90.6436 22.5402 90.1235 23.1023 89.7879 23.8573C89.4691 24.5956 89.3097 25.5268 89.3097 26.651C89.3097 27.7752 89.4691 28.7064 89.7879 29.4447C90.1235 30.1829 90.694 30.7366 91.4993 31.1058C92.3215 31.4749 93.4541 31.6595 94.897 31.6595C96.34 31.6595 97.5397 31.4581 98.4961 31.0554C99.4693 30.6527 100.132 30.2668 100.484 29.8977V30.6527L100.736 33.1947C100.451 33.4632 99.7545 33.74 98.6471 34.0253C97.5565 34.3105 96.0464 34.4531 94.1168 34.4531ZM102.486 34.2014C102.604 34.2014 102.721 34.084 102.839 33.8491C102.956 33.6142 103.015 33.2283 103.015 32.6914V20.6106C103.015 20.0737 102.956 19.6962 102.839 19.478C102.721 19.2431 102.604 19.1173 102.486 19.1005H117.185V19.8556L117.688 22.7751C117.269 22.5905 116.53 22.3976 115.473 22.1962C114.416 21.9781 113.141 21.869 111.648 21.869H107.923C107.419 21.869 107.117 21.911 107.017 21.9949C106.933 22.062 106.891 22.2717 106.891 22.6241V24.4865C106.891 24.8556 106.933 25.0738 107.017 25.1409C107.117 25.208 107.411 25.2416 107.898 25.2416H111.522C112.495 25.2416 113.275 25.1912 113.862 25.0906C114.467 24.9731 114.861 24.8556 115.045 24.7382C114.978 25.057 114.903 25.4261 114.819 25.8456C114.735 26.2651 114.668 26.6678 114.618 27.0537C114.567 27.4396 114.542 27.7584 114.542 28.0101H107.898C107.411 28.0101 107.117 28.0436 107.017 28.1107C106.933 28.1611 106.891 28.3792 106.891 28.7651V30.6276C106.891 31.0135 106.933 31.24 107.017 31.3071C107.101 31.3742 107.394 31.4078 107.898 31.4078H114.693C115.666 31.4078 116.446 31.2987 117.034 31.0806C117.638 30.8457 118.032 30.6192 118.217 30.401L117.713 33.4212V34.2014H102.486ZM118.979 29.6712C119.097 29.2685 119.206 28.7903 119.307 28.2366C119.424 27.6661 119.483 27.2215 119.483 26.9027H124.416C125.272 26.9027 125.892 26.8775 126.278 26.8272C126.681 26.76 126.899 26.7013 126.933 26.651C126.815 26.9194 126.698 27.3137 126.58 27.8339C126.48 28.354 126.429 28.8826 126.429 29.4195H122C121.077 29.4195 120.372 29.453 119.886 29.5202C119.399 29.5705 119.097 29.6208 118.979 29.6712ZM128.467 34.2014C128.585 34.2014 128.694 34.084 128.795 33.8491C128.912 33.6142 128.971 33.2283 128.971 32.6914V20.6106C128.971 20.0737 128.912 19.6962 128.795 19.478C128.677 19.2431 128.56 19.1173 128.442 19.1005H136.697C138.124 19.1005 139.273 19.3103 140.145 19.7297C141.035 20.1324 141.689 20.7197 142.108 21.4915C142.528 22.2465 142.738 23.1526 142.738 24.2097C142.738 25.2835 142.528 26.2147 142.108 27.0033C141.689 27.7752 141.035 28.3708 140.145 28.7903C139.273 29.193 138.124 29.3943 136.697 29.3943H132.847V32.6914C132.847 33.2283 132.905 33.6142 133.023 33.8491C133.14 34.084 133.258 34.2014 133.375 34.2014H128.467ZM133.878 26.6258H135.137C136.127 26.6258 136.89 26.5419 137.427 26.3741C137.981 26.2063 138.367 25.9463 138.585 25.5939C138.803 25.2416 138.912 24.7801 138.912 24.2097C138.912 23.656 138.795 23.2113 138.56 22.8757C138.342 22.5402 137.973 22.3053 137.452 22.171C136.949 22.02 136.261 21.9445 135.389 21.9445H133.878C133.358 21.9445 133.056 21.9781 132.972 22.0452C132.889 22.0955 132.847 22.2885 132.847 22.6241V25.9211C132.847 26.2567 132.889 26.458 132.972 26.5251C133.056 26.5923 133.358 26.6258 133.878 26.6258ZM144.407 34.2014C144.524 34.2014 144.633 34.084 144.734 33.8491C144.851 33.6142 144.91 33.2283 144.91 32.6914V20.6106C144.91 20.0737 144.851 19.6962 144.734 19.478C144.617 19.2431 144.499 19.1173 144.382 19.1005H152.637C154.113 19.1005 155.288 19.2851 156.16 19.6542C157.05 20.0234 157.687 20.5687 158.073 21.2902C158.476 21.9949 158.677 22.8757 158.677 23.9328C158.677 24.6879 158.535 25.359 158.249 25.9463C157.981 26.5335 157.603 27.0117 157.117 27.3809C156.63 27.75 156.085 28.0185 155.481 28.1862V28.2617C156.152 28.5302 156.857 29.0587 157.595 29.8473C158.333 30.6192 158.996 31.4833 159.583 32.4397C159.969 33.0605 160.322 33.5051 160.64 33.7736C160.959 34.042 161.202 34.1847 161.37 34.2014H155.028C155.229 34.1847 155.389 34.0756 155.506 33.8743C155.64 33.6561 155.598 33.3038 155.38 32.8172C155.028 32.0118 154.6 31.3155 154.097 30.7282C153.593 30.141 153.006 29.6963 152.335 29.3943C151.68 29.0755 150.925 28.9161 150.07 28.9161H149.793C149.273 28.9161 148.971 28.9581 148.887 29.042C148.803 29.1259 148.761 29.3356 148.761 29.6712V32.6914C148.761 33.2283 148.82 33.6142 148.937 33.8491C149.055 34.084 149.172 34.2014 149.289 34.2014H144.407ZM149.793 26.3741H151.857C152.914 26.3741 153.677 26.1896 154.147 25.8204C154.617 25.4345 154.852 24.8053 154.852 23.9328C154.852 23.5469 154.768 23.2029 154.6 22.9009C154.432 22.5989 154.147 22.364 153.744 22.1962C153.358 22.0284 152.813 21.9445 152.108 21.9445H149.793C149.273 21.9445 148.971 21.9697 148.887 22.02C148.803 22.0704 148.761 22.2633 148.761 22.5989V25.6946C148.761 26.0302 148.803 26.2315 148.887 26.2986C148.971 26.349 149.273 26.3741 149.793 26.3741ZM162.115 34.2014C162.233 34.2014 162.35 34.084 162.468 33.8491C162.585 33.6142 162.644 33.2283 162.644 32.6914V20.6106C162.644 20.0737 162.585 19.6962 162.468 19.478C162.35 19.2431 162.233 19.1173 162.115 19.1005H176.814V19.8556L177.317 22.7751C176.898 22.5905 176.159 22.3976 175.102 22.1962C174.045 21.9781 172.77 21.869 171.277 21.869H167.552C167.048 21.869 166.746 21.911 166.646 21.9949C166.562 22.062 166.52 22.2717 166.52 22.6241V24.4865C166.52 24.8556 166.562 25.0738 166.646 25.1409C166.746 25.208 167.04 25.2416 167.527 25.2416H171.151C172.124 25.2416 172.904 25.1912 173.491 25.0906C174.096 24.9731 174.49 24.8556 174.674 24.7382C174.607 25.057 174.532 25.4261 174.448 25.8456C174.364 26.2651 174.297 26.6678 174.247 27.0537C174.196 27.4396 174.171 27.7584 174.171 28.0101H167.527C167.04 28.0101 166.746 28.0436 166.646 28.1107C166.562 28.1611 166.52 28.3792 166.52 28.7651V30.6276C166.52 31.0135 166.562 31.24 166.646 31.3071C166.73 31.3742 167.023 31.4078 167.527 31.4078H174.322C175.295 31.4078 176.075 31.2987 176.663 31.0806C177.267 30.8457 177.661 30.6192 177.846 30.401L177.342 33.4212V34.2014H162.115ZM179.137 34.2014C179.254 34.2014 179.364 34.084 179.464 33.8491C179.582 33.6142 179.64 33.2283 179.64 32.6914V20.6106C179.64 20.0737 179.582 19.6962 179.464 19.478C179.347 19.2431 179.229 19.1173 179.112 19.1005H187.367C188.793 19.1005 189.943 19.3103 190.815 19.7297C191.704 20.1324 192.359 20.7197 192.778 21.4915C193.198 22.2465 193.407 23.1526 193.407 24.2097C193.407 25.2835 193.198 26.2147 192.778 27.0033C192.359 27.7752 191.704 28.3708 190.815 28.7903C189.943 29.193 188.793 29.3943 187.367 29.3943H183.516V32.6914C183.516 33.2283 183.575 33.6142 183.692 33.8491C183.81 34.084 183.927 34.2014 184.045 34.2014H179.137ZM184.548 26.6258H185.807C186.797 26.6258 187.56 26.5419 188.097 26.3741C188.651 26.2063 189.037 25.9463 189.255 25.5939C189.473 25.2416 189.582 24.7801 189.582 24.2097C189.582 23.656 189.464 23.2113 189.229 22.8757C189.011 22.5402 188.642 22.3053 188.122 22.171C187.619 22.02 186.931 21.9445 186.058 21.9445H184.548C184.028 21.9445 183.726 21.9781 183.642 22.0452C183.558 22.0955 183.516 22.2885 183.516 22.6241V25.9211C183.516 26.2567 183.558 26.458 183.642 26.5251C183.726 26.5923 184.028 26.6258 184.548 26.6258Z" fill="#FCFCFC"/>
</svg>
