<svg width="1376" height="811" viewBox="0 0 1376 811" fill="none" xmlns="http://www.w3.org/2000/svg">
<path d="M449.711 719.337C433.046 706.966 423.74 686.238 421.248 659.251C418.756 632.263 423.085 599.07 433.634 561.864C454.731 487.455 500.68 397.095 566.492 308.436C632.304 219.778 705.495 149.639 770.611 107.906C803.17 87.0385 833.689 73.2866 860.243 67.86C886.796 62.4333 909.33 65.3405 925.996 77.7115C942.661 90.0824 951.967 110.81 954.459 137.797C956.951 164.785 952.622 197.978 942.073 235.184C920.976 309.593 875.027 399.953 809.215 488.612C743.402 577.271 670.212 647.409 605.096 689.142C572.537 710.01 542.017 723.761 515.464 729.188C488.911 734.615 466.377 731.708 449.711 719.337Z" stroke="#232323" stroke-width="0.91954"/>
<g filter="url(#filter0_f_509_1326)">
<path d="M1360.91 442.826C1360.91 466.52 1342.2 489.175 1308.16 509.841C1274.13 530.496 1224.88 549.107 1163.98 564.742C1042.21 596.009 873.958 615.352 688.103 615.352C502.249 615.352 333.999 596.009 212.222 564.742C151.331 549.107 102.076 530.496 68.0515 509.841C34.0086 489.175 15.3 466.52 15.3 442.826C15.3 419.131 34.0086 396.476 68.0515 375.811C102.076 355.156 151.331 336.544 212.222 320.91C333.999 289.643 502.249 270.3 688.103 270.3C873.958 270.3 1042.21 289.643 1163.98 320.91C1224.88 336.544 1274.13 355.156 1308.16 375.811C1342.2 396.476 1360.91 419.131 1360.91 442.826Z" stroke="#232323" stroke-width="0.6"/>
</g>
<circle cx="15" cy="15" r="15" transform="matrix(-1 0 0 1 702 603)" fill="#FD7702"/>
<circle cx="15" cy="15" r="15" transform="matrix(-1 0 0 1 30 424)" fill="#A1C3FC"/>
<circle cx="15" cy="15" r="15" transform="matrix(-1 0 0 1 1376 424)" fill="#9747FF"/>
<circle cx="15" cy="15" r="15" transform="matrix(-1 0 0 1 702 257)" fill="#0C8E09"/>
<defs>
<filter id="filter0_f_509_1326" x="11" y="266" width="1354.21" height="353.652" filterUnits="userSpaceOnUse" color-interpolation-filters="sRGB">
<feFlood flood-opacity="0" result="BackgroundImageFix"/>
<feBlend mode="normal" in="SourceGraphic" in2="BackgroundImageFix" result="shape"/>
<feGaussianBlur stdDeviation="2" result="effect1_foregroundBlur_509_1326"/>
</filter>
</defs>
</svg>
