<svg width="24" height="24" viewBox="0 0 24 24" fill="none" xmlns="http://www.w3.org/2000/svg">
<path d="M22.5773 13.388C22.3255 15.3079 21.5558 17.1231 20.3508 18.6389C19.1458 20.1547 17.5509 21.3138 15.7372 21.992C13.9235 22.6703 11.9594 22.842 10.0555 22.4888C8.15157 22.1356 6.37974 21.2708 4.92999 19.9871C3.48024 18.7034 2.40727 17.0493 1.82615 15.2022C1.24503 13.3551 1.17768 11.3846 1.63132 9.50212C2.08497 7.61963 3.0425 5.89614 4.40122 4.51648C5.75994 3.13683 7.46859 2.15306 9.34392 1.67068C14.5426 0.337342 19.9239 3.01334 21.9106 8.00001" stroke="#232323" stroke-width="2" stroke-linecap="round" stroke-linejoin="round"/>
<path d="M22.6667 1.33334V8.00001H16" stroke="#232323" stroke-width="2" stroke-linecap="round" stroke-linejoin="round"/>
</svg>
