<svg width="29" height="30" viewBox="0 0 29 30" fill="none" xmlns="http://www.w3.org/2000/svg">
<g clip-path="url(#clip0_189_583)">
<path d="M13.4207 22.344H15.8052V19.9595H13.4207V22.344ZM14.6129 3.26807C8.0317 3.26807 2.69043 8.60934 2.69043 15.1905C2.69043 21.7718 8.0317 27.113 14.6129 27.113C21.1941 27.113 26.5354 21.7718 26.5354 15.1905C26.5354 8.60934 21.1941 3.26807 14.6129 3.26807ZM14.6129 24.7285C9.3551 24.7285 5.07493 20.4484 5.07493 15.1905C5.07493 9.93273 9.3551 5.65256 14.6129 5.65256C19.8707 5.65256 24.1509 9.93273 24.1509 15.1905C24.1509 20.4484 19.8707 24.7285 14.6129 24.7285ZM14.6129 8.03706C11.978 8.03706 9.84392 10.1712 9.84392 12.8061H12.2284C12.2284 11.4946 13.3014 10.4216 14.6129 10.4216C15.9244 10.4216 16.9974 11.4946 16.9974 12.8061C16.9974 15.1905 13.4207 14.8925 13.4207 18.7673H15.8052C15.8052 16.0847 19.3819 15.7867 19.3819 12.8061C19.3819 10.1712 17.2478 8.03706 14.6129 8.03706Z" fill="#545050"/>
</g>
<defs>
<clipPath id="clip0_189_583">
<rect width="28.614" height="28.614" fill="white" transform="translate(0.306641 0.883789)"/>
</clipPath>
</defs>
</svg>
