<svg width="33" height="33" viewBox="0 0 33 33" fill="none" xmlns="http://www.w3.org/2000/svg">
<path d="M9.22 6.70231C9.3 7.88898 9.5 9.04898 9.82 10.1556L8.22 11.7556C7.67333 10.1556 7.32667 8.46231 7.20667 6.70231H9.22ZM22.3667 22.729C23.5 23.049 24.66 23.249 25.8333 23.329V25.3156C24.0733 25.1956 22.38 24.849 20.7667 24.3156L22.3667 22.729ZM10.5 4.03564H5.83333C5.1 4.03564 4.5 4.63564 4.5 5.36898C4.5 17.889 14.6467 28.0356 27.1667 28.0356C27.9 28.0356 28.5 27.4356 28.5 26.7023V22.049C28.5 21.3156 27.9 20.7156 27.1667 20.7156C25.5133 20.7156 23.9 20.449 22.4067 19.9556C22.2743 19.9076 22.1341 19.885 21.9933 19.889C21.6467 19.889 21.3133 20.0223 21.0467 20.2756L18.1133 23.209C14.3339 21.2762 11.2595 18.2017 9.32667 14.4223L12.26 11.489C12.6333 11.1156 12.74 10.5956 12.5933 10.129C12.0875 8.59305 11.831 6.98604 11.8333 5.36898C11.8333 4.63564 11.2333 4.03564 10.5 4.03564Z" fill="#FD7702"/>
</svg>
