<svg width="126" height="129" viewBox="0 0 126 129" fill="none" xmlns="http://www.w3.org/2000/svg">
<g filter="url(#filter0_d_187_537)">
<path d="M121.718 61.9985C121.718 94.2393 95.5818 120.376 63.341 120.376C31.1002 120.376 4.96387 94.2393 4.96387 61.9985C4.96387 29.7577 31.1002 3.62134 63.341 3.62134C95.5818 3.62134 121.718 29.7577 121.718 61.9985ZM22.0546 61.9985C22.0546 84.8003 40.5392 103.285 63.341 103.285C86.1428 103.285 104.627 84.8003 104.627 61.9985C104.627 39.1966 86.1428 20.7121 63.341 20.7121C40.5392 20.7121 22.0546 39.1966 22.0546 61.9985Z" fill="#E7E5E5"/>
<path d="M5.08478 65.7429C4.4584 55.9937 6.28868 46.2433 10.4079 37.3849C14.5272 28.5266 20.8036 20.8437 28.6622 15.0402C36.5208 9.23662 45.7102 5.49809 55.3883 4.16709C65.0665 2.83611 74.9239 3.95522 84.0574 7.42192L77.9926 23.4004C71.5331 20.9487 64.5615 20.1572 57.7168 21.0985C50.8721 22.0398 44.373 24.6839 38.8152 28.7883C33.2573 32.8928 28.8184 38.3264 25.9051 44.5913C22.9918 50.8563 21.6974 57.7521 22.1404 64.6471L5.08478 65.7429Z" fill="#FF2F2F"/>
</g>
<defs>
<filter id="filter0_d_187_537" x="0.963867" y="3.62134" width="124.754" height="124.754" filterUnits="userSpaceOnUse" color-interpolation-filters="sRGB">
<feFlood flood-opacity="0" result="BackgroundImageFix"/>
<feColorMatrix in="SourceAlpha" type="matrix" values="0 0 0 0 0 0 0 0 0 0 0 0 0 0 0 0 0 0 127 0" result="hardAlpha"/>
<feOffset dy="4"/>
<feGaussianBlur stdDeviation="2"/>
<feComposite in2="hardAlpha" operator="out"/>
<feColorMatrix type="matrix" values="0 0 0 0 0 0 0 0 0 0 0 0 0 0 0 0 0 0 0.25 0"/>
<feBlend mode="normal" in2="BackgroundImageFix" result="effect1_dropShadow_187_537"/>
<feBlend mode="normal" in="SourceGraphic" in2="effect1_dropShadow_187_537" result="shape"/>
</filter>
</defs>
</svg>
