<svg width="186" height="196" viewBox="0 0 186 196" fill="none" xmlns="http://www.w3.org/2000/svg">
<path d="M182.934 162.042H29.1417V27.4936L182.934 162.042Z" fill="#808080" stroke="black" stroke-width="0.367366"/>
<path d="M94.2739 185.889C93.4632 185.889 92.7485 185.734 92.1299 185.425C91.5112 185.105 91.0312 184.662 90.6899 184.097C90.3485 183.532 90.1779 182.876 90.1779 182.129V178.257C90.1779 177.382 90.3485 176.646 90.6899 176.049C91.0419 175.452 91.5325 175.004 92.1619 174.705C92.7912 174.396 93.5219 174.241 94.3539 174.241C95.1752 174.241 95.8845 174.385 96.4819 174.673C97.0792 174.95 97.5379 175.35 97.8579 175.873C98.1779 176.385 98.3379 176.988 98.3379 177.681H96.6419C96.6419 177.126 96.4552 176.668 96.0819 176.305C95.7192 175.932 95.1432 175.745 94.3539 175.745C93.5539 175.745 92.9352 175.958 92.4979 176.385C92.0712 176.801 91.8579 177.382 91.8579 178.129V179.473H92.1139C92.2952 179.217 92.5885 178.972 92.9939 178.737C93.4099 178.502 93.9965 178.385 94.7539 178.385C95.4152 178.385 96.0232 178.529 96.5779 178.817C97.1325 179.105 97.5752 179.516 97.9059 180.049C98.2472 180.582 98.4179 181.228 98.4179 181.985V182.177C98.4179 182.913 98.2419 183.564 97.8899 184.129C97.5379 184.684 97.0472 185.116 96.4179 185.425C95.7992 185.734 95.0845 185.889 94.2739 185.889ZM94.2899 184.385C95.0365 184.385 95.6285 184.182 96.0659 183.777C96.5139 183.372 96.7379 182.828 96.7379 182.145V182.017C96.7379 181.558 96.6365 181.164 96.4339 180.833C96.2312 180.492 95.9432 180.225 95.5699 180.033C95.2072 179.841 94.7805 179.745 94.2899 179.745C93.8099 179.745 93.3832 179.841 93.0099 180.033C92.6472 180.225 92.3645 180.492 92.1619 180.833C91.9592 181.164 91.8579 181.558 91.8579 182.017V182.145C91.8579 182.828 92.0765 183.372 92.5139 183.777C92.9619 184.182 93.5539 184.385 94.2899 184.385Z" fill="black"/>
<path d="M5.01948 93.385V83.369H4.76348L2.92348 87.145H1.14748L3.62748 82.185H6.69948V93.385H5.01948ZM8.14861 93.385V92.121C8.14861 91.3423 8.28194 90.7023 8.54861 90.201C8.81527 89.6997 9.19394 89.2943 9.68461 88.985C10.1859 88.665 10.7886 88.3983 11.4926 88.185L12.4686 87.881C12.9059 87.7423 13.2793 87.5717 13.5886 87.369C13.9086 87.1663 14.1539 86.9157 14.3246 86.617C14.4953 86.3077 14.5806 85.9503 14.5806 85.545V85.481C14.5806 84.8517 14.3673 84.361 13.9406 84.009C13.5139 83.6463 12.9539 83.465 12.2606 83.465C11.5459 83.465 10.9646 83.657 10.5166 84.041C10.0793 84.425 9.86061 84.9903 9.86061 85.737V85.993H8.19661V85.753C8.19661 84.9423 8.37261 84.2597 8.72461 83.705C9.07661 83.1397 9.56194 82.7077 10.1806 82.409C10.7993 82.1103 11.4926 81.961 12.2606 81.961C13.0286 81.961 13.7113 82.105 14.3086 82.393C14.9166 82.681 15.3913 83.0863 15.7326 83.609C16.0846 84.1317 16.2606 84.745 16.2606 85.449V85.593C16.2606 86.3183 16.1166 86.921 15.8286 87.401C15.5406 87.881 15.1406 88.2757 14.6286 88.585C14.1273 88.8943 13.5459 89.1557 12.8846 89.369L11.9406 89.657C11.4393 89.8063 11.0339 89.9717 10.7246 90.153C10.4259 90.3237 10.2019 90.5317 10.0526 90.777C9.91394 91.0223 9.84461 91.337 9.84461 91.721V91.881H16.1646V93.385H8.14861Z" fill="black"/>
<path d="M24.6547 22.1207L27.5987 10.9207H31.2787L34.2227 22.1207H32.0467L31.4387 19.6567H27.4387L26.8307 22.1207H24.6547ZM27.9347 17.7047H30.9427L29.5827 12.2487H29.2947L27.9347 17.7047Z" fill="black"/>
<path d="M111.822 89.8679V88.0119H113.294V80.5239H111.822V78.6679H117.582C118.265 78.6679 118.857 78.7853 119.358 79.0199C119.87 79.2439 120.265 79.5693 120.542 79.9959C120.83 80.4119 120.974 80.9133 120.974 81.4999V81.6599C120.974 82.1719 120.878 82.5933 120.686 82.9239C120.494 83.2439 120.265 83.4946 119.998 83.6759C119.742 83.8466 119.497 83.9693 119.262 84.0439V84.3319C119.497 84.3959 119.753 84.5186 120.03 84.6999C120.308 84.8706 120.542 85.1213 120.734 85.4519C120.937 85.7826 121.038 86.2146 121.038 86.7479V86.9079C121.038 87.5266 120.894 88.0599 120.606 88.5079C120.318 88.9453 119.918 89.2813 119.406 89.5159C118.905 89.7506 118.318 89.8679 117.646 89.8679H111.822ZM115.406 87.9479H117.39C117.849 87.9479 118.217 87.8359 118.494 87.6119C118.782 87.3879 118.926 87.0679 118.926 86.6519V86.4919C118.926 86.0759 118.788 85.7559 118.51 85.5319C118.233 85.3079 117.86 85.1959 117.39 85.1959H115.406V87.9479ZM115.406 83.2759H117.358C117.796 83.2759 118.153 83.1639 118.43 82.9399C118.718 82.7159 118.862 82.4066 118.862 82.0119V81.8519C118.862 81.4466 118.724 81.1373 118.446 80.9239C118.169 80.6999 117.806 80.5879 117.358 80.5879H115.406V83.2759ZM126.543 90.0919C125.157 90.0919 124.058 89.7079 123.247 88.9399C122.437 88.1613 122.031 87.0519 122.031 85.6119V82.9239C122.031 81.4839 122.437 80.3799 123.247 79.6119C124.058 78.8333 125.157 78.4439 126.543 78.4439C127.919 78.4439 128.981 78.8226 129.727 79.5799C130.485 80.3266 130.863 81.3559 130.863 82.6679V82.7639H128.783V82.6039C128.783 81.9426 128.597 81.3986 128.223 80.9719C127.861 80.5453 127.301 80.3319 126.543 80.3319C125.797 80.3319 125.21 80.5613 124.783 81.0199C124.357 81.4786 124.143 82.1026 124.143 82.8919V85.6439C124.143 86.4226 124.357 87.0466 124.783 87.5159C125.21 87.9746 125.797 88.2039 126.543 88.2039C127.301 88.2039 127.861 87.9906 128.223 87.5639C128.597 87.1266 128.783 86.5826 128.783 85.9319V85.6439H130.863V85.8679C130.863 87.1799 130.485 88.2146 129.727 88.9719C128.981 89.7186 127.919 90.0919 126.543 90.0919Z" fill="black"/>
<path d="M179.517 179.562C178.13 179.562 177.031 179.178 176.221 178.41C175.41 177.631 175.005 176.522 175.005 175.082V172.394C175.005 170.954 175.41 169.85 176.221 169.082C177.031 168.303 178.13 167.914 179.517 167.914C180.893 167.914 181.954 168.293 182.701 169.05C183.458 169.797 183.837 170.826 183.837 172.138V172.234H181.757V172.074C181.757 171.413 181.57 170.869 181.197 170.442C180.834 170.015 180.274 169.802 179.517 169.802C178.77 169.802 178.183 170.031 177.757 170.49C177.33 170.949 177.117 171.573 177.117 172.362V175.114C177.117 175.893 177.33 176.517 177.757 176.986C178.183 177.445 178.77 177.674 179.517 177.674C180.274 177.674 180.834 177.461 181.197 177.034C181.57 176.597 181.757 176.053 181.757 175.402V175.114H183.837V175.338C183.837 176.65 183.458 177.685 182.701 178.442C181.954 179.189 180.893 179.562 179.517 179.562Z" fill="black"/>
</svg>
