<svg width="158" height="32" viewBox="0 0 158 32" fill="none" xmlns="http://www.w3.org/2000/svg">
<path d="M5.17075 1.28H14.1948C15.2828 1.28 16.2108 1.568 16.9788 2.144C17.7681 2.72 18.3654 3.46667 18.7708 4.384C19.1761 5.30133 19.3788 6.272 19.3788 7.296C19.3788 8.32 19.1654 9.344 18.7388 10.368C18.3121 11.3707 17.7254 12.288 16.9788 13.12C16.2321 13.952 15.3681 14.6133 14.3868 15.104C13.4054 15.5947 12.3601 15.84 11.2508 15.84H4.94675L3.21875 24H0.338753L5.17075 1.28ZM11.6348 13.28C12.2748 13.28 12.8828 13.12 13.4588 12.8C14.0561 12.48 14.5681 12.0533 14.9948 11.52C15.4428 10.9653 15.7948 10.3467 16.0508 9.664C16.3068 8.98133 16.4348 8.27733 16.4348 7.552C16.4348 6.82667 16.3068 6.18667 16.0508 5.632C15.7948 5.07733 15.4428 4.64 14.9948 4.32C14.5468 4 14.0348 3.84 13.4588 3.84H7.50675L5.49075 13.28H11.6348ZM24.618 24.32C23.1247 24.32 21.8873 24 20.906 23.36C19.9247 22.72 19.1887 21.8667 18.698 20.8C18.2287 19.7333 17.994 18.56 17.994 17.28C17.994 15.872 18.25 14.5493 18.762 13.312C19.274 12.0747 19.978 10.9867 20.874 10.048C21.7913 9.088 22.8473 8.34133 24.042 7.808C25.2367 7.27467 26.506 7.008 27.85 7.008C29.3433 7.008 30.5807 7.328 31.562 7.968C32.5647 8.608 33.3113 9.46133 33.802 10.528C34.2927 11.5947 34.538 12.7787 34.538 14.08C34.538 15.4667 34.282 16.7787 33.77 18.016C33.258 19.2533 32.5433 20.352 31.626 21.312C30.7087 22.2507 29.6527 22.9867 28.458 23.52C27.2633 24.0533 25.9833 24.32 24.618 24.32ZM25.098 21.888C25.93 21.888 26.73 21.7067 27.498 21.344C28.2873 20.9813 28.9807 20.4693 29.578 19.808C30.1967 19.1253 30.6873 18.336 31.05 17.44C31.4127 16.544 31.594 15.5627 31.594 14.496C31.594 13.5147 31.434 12.6507 31.114 11.904C30.794 11.136 30.3247 10.5387 29.706 10.112C29.0873 9.664 28.3193 9.44 27.402 9.44C26.57 9.44 25.77 9.632 25.002 10.016C24.234 10.3787 23.5407 10.9013 22.922 11.584C22.3033 12.2453 21.8127 13.0347 21.45 13.952C21.0873 14.848 20.906 15.8293 20.906 16.896C20.906 17.856 21.066 18.72 21.386 19.488C21.706 20.2347 22.1753 20.8213 22.794 21.248C23.434 21.6747 24.202 21.888 25.098 21.888ZM35.3243 7.296H38.2363L40.8923 21.536C41.5749 20.6613 42.2256 19.7867 42.8443 18.912C43.4629 18.016 44.0389 17.1307 44.5723 16.256L42.3323 7.296H45.2443L46.5243 12.704C46.9723 11.808 47.3669 10.912 47.7083 10.016C48.0709 9.09867 48.3696 8.192 48.6043 7.296H51.2923C50.8869 8.768 50.3429 10.2507 49.6603 11.744C48.9989 13.216 48.2309 14.688 47.3563 16.16L48.6683 21.536C49.3509 20.5973 50.0016 19.6587 50.6203 18.72C51.2389 17.76 51.8149 16.8 52.3483 15.84C52.8816 14.88 53.3723 13.9307 53.8203 12.992C54.2896 12.032 54.6949 11.0827 55.0363 10.144C55.3989 9.184 55.6976 8.23467 55.9323 7.296H58.6203C57.8523 10.0693 56.6896 12.8533 55.1323 15.648C53.5749 18.4213 51.7189 21.2053 49.5643 24H46.5243L45.3403 19.296C44.8069 20.0853 44.2416 20.8747 43.6443 21.664C43.0469 22.432 42.4283 23.2107 41.7883 24H38.7483L35.3243 7.296ZM63.8935 24.32C62.5068 24.32 61.3228 24.0107 60.3415 23.392C59.3602 22.752 58.6135 21.8987 58.1015 20.832C57.5895 19.7653 57.3335 18.5707 57.3335 17.248C57.3335 15.904 57.5788 14.624 58.0695 13.408C58.5815 12.1707 59.2962 11.072 60.2135 10.112C61.1308 9.152 62.1975 8.39467 63.4135 7.84C64.6508 7.28533 65.9948 7.008 67.4455 7.008C68.5335 7.008 69.4935 7.17867 70.3255 7.52C71.1788 7.86133 71.8402 8.36267 72.3095 9.024C72.7788 9.68533 73.0135 10.5173 73.0135 11.52C73.0135 13.2053 72.2668 14.4853 70.7735 15.36C69.2802 16.2347 66.9868 16.672 63.8935 16.672C63.3175 16.672 62.6562 16.6613 61.9095 16.64C61.1628 16.5973 60.2988 16.5333 59.3175 16.448L59.7015 14.528C60.6402 14.5707 61.4402 14.6133 62.1015 14.656C62.7842 14.6987 63.4135 14.72 63.9895 14.72C65.6108 14.72 66.8908 14.5813 67.8295 14.304C68.7682 14.0267 69.4402 13.6427 69.8455 13.152C70.2722 12.6613 70.4855 12.1067 70.4855 11.488C70.4855 10.9333 70.3468 10.4853 70.0695 10.144C69.8135 9.80267 69.4402 9.54667 68.9495 9.376C68.4802 9.20533 67.9148 9.12 67.2535 9.12C66.1868 9.12 65.2162 9.344 64.3415 9.792C63.4882 10.24 62.7415 10.848 62.1015 11.616C61.4828 12.384 61.0028 13.2587 60.6615 14.24C60.3415 15.2 60.1815 16.2027 60.1815 17.248C60.1815 18.1227 60.3308 18.944 60.6295 19.712C60.9282 20.4587 61.3868 21.0667 62.0055 21.536C62.6242 21.984 63.4028 22.208 64.3415 22.208C65.3228 22.208 66.2828 21.9627 67.2215 21.472C68.1602 20.96 68.8962 20.2773 69.4295 19.424L71.7015 20.096C71.1895 20.9067 70.5175 21.632 69.6855 22.272C68.8535 22.912 67.9362 23.4133 66.9335 23.776C65.9522 24.1387 64.9388 24.32 63.8935 24.32ZM76.1195 7.296H78.7435L77.9115 11.168C78.7222 10.016 79.6395 9.07733 80.6635 8.352C81.7088 7.62667 82.7435 7.264 83.7675 7.264C83.9595 7.264 84.1195 7.27467 84.2475 7.296C84.3968 7.296 84.5142 7.30667 84.5995 7.328L84.0875 9.76C82.7648 9.78133 81.5168 10.144 80.3435 10.848C79.1702 11.5307 78.2422 12.48 77.5595 13.696L75.3835 24H72.5675L76.1195 7.296ZM89.2323 24.32C87.8456 24.32 86.6616 24.0107 85.6803 23.392C84.6989 22.752 83.9523 21.8987 83.4403 20.832C82.9283 19.7653 82.6723 18.5707 82.6723 17.248C82.6723 15.904 82.9176 14.624 83.4083 13.408C83.9203 12.1707 84.6349 11.072 85.5523 10.112C86.4696 9.152 87.5363 8.39467 88.7523 7.84C89.9896 7.28533 91.3336 7.008 92.7843 7.008C93.8723 7.008 94.8323 7.17867 95.6643 7.52C96.5176 7.86133 97.1789 8.36267 97.6483 9.024C98.1176 9.68533 98.3523 10.5173 98.3523 11.52C98.3523 13.2053 97.6056 14.4853 96.1123 15.36C94.6189 16.2347 92.3256 16.672 89.2323 16.672C88.6563 16.672 87.9949 16.6613 87.2483 16.64C86.5016 16.5973 85.6376 16.5333 84.6563 16.448L85.0403 14.528C85.9789 14.5707 86.7789 14.6133 87.4403 14.656C88.1229 14.6987 88.7523 14.72 89.3283 14.72C90.9496 14.72 92.2296 14.5813 93.1683 14.304C94.1069 14.0267 94.7789 13.6427 95.1843 13.152C95.6109 12.6613 95.8243 12.1067 95.8243 11.488C95.8243 10.9333 95.6856 10.4853 95.4083 10.144C95.1523 9.80267 94.7789 9.54667 94.2883 9.376C93.8189 9.20533 93.2536 9.12 92.5923 9.12C91.5256 9.12 90.5549 9.344 89.6803 9.792C88.8269 10.24 88.0803 10.848 87.4403 11.616C86.8216 12.384 86.3416 13.2587 86.0003 14.24C85.6803 15.2 85.5203 16.2027 85.5203 17.248C85.5203 18.1227 85.6696 18.944 85.9683 19.712C86.2669 20.4587 86.7256 21.0667 87.3443 21.536C87.9629 21.984 88.7416 22.208 89.6803 22.208C90.6616 22.208 91.6216 21.9627 92.5603 21.472C93.4989 20.96 94.2349 20.2773 94.7683 19.424L97.0403 20.096C96.5283 20.9067 95.8563 21.632 95.0243 22.272C94.1923 22.912 93.2749 23.4133 92.2723 23.776C91.2909 24.1387 90.2776 24.32 89.2323 24.32ZM104.402 24.32C103.165 24.32 102.098 24.0107 101.202 23.392C100.306 22.752 99.6236 21.9093 99.1543 20.864C98.6849 19.7973 98.4503 18.6347 98.4503 17.376C98.4503 16.032 98.6956 14.7413 99.1863 13.504C99.6983 12.2667 100.381 11.168 101.234 10.208C102.109 9.22667 103.101 8.448 104.21 7.872C105.32 7.296 106.482 7.008 107.698 7.008C108.978 7.008 110.045 7.36 110.898 8.064C111.752 8.768 112.349 9.62133 112.69 10.624L114.834 0.639999H117.65L113.426 20.544C113.405 20.6293 113.384 20.704 113.362 20.768C113.362 20.832 113.362 20.896 113.362 20.96C113.362 21.344 113.597 21.5467 114.066 21.568L113.554 24C113.32 24.0213 113.106 24.0427 112.914 24.064C112.744 24.1067 112.584 24.128 112.434 24.128C111.837 24.128 111.378 23.9893 111.058 23.712C110.76 23.4347 110.61 23.0933 110.61 22.688C110.61 22.56 110.621 22.4213 110.642 22.272C110.664 22.1013 110.696 21.8987 110.738 21.664C110.781 21.4293 110.834 21.1627 110.898 20.864C110.066 21.9307 109.053 22.7733 107.858 23.392C106.685 24.0107 105.533 24.32 104.402 24.32ZM105.618 21.888C106.088 21.888 106.589 21.792 107.122 21.6C107.677 21.408 108.21 21.1413 108.722 20.8C109.256 20.4587 109.736 20.064 110.162 19.616C110.589 19.1467 110.909 18.656 111.122 18.144L112.114 13.344C112.029 12.6187 111.784 11.968 111.378 11.392C110.973 10.7947 110.472 10.3253 109.874 9.984C109.298 9.62133 108.68 9.44 108.018 9.44C107.122 9.44 106.28 9.664 105.49 10.112C104.701 10.5387 103.997 11.1147 103.378 11.84C102.781 12.5653 102.301 13.376 101.938 14.272C101.597 15.1467 101.426 16.032 101.426 16.928C101.426 17.8453 101.597 18.6773 101.938 19.424C102.28 20.1707 102.76 20.768 103.378 21.216C104.018 21.664 104.765 21.888 105.618 21.888ZM127.651 1.28H138.467C139.32 1.28 140.024 1.504 140.579 1.952C141.155 2.4 141.581 2.976 141.859 3.68C142.157 4.384 142.307 5.13067 142.307 5.92C142.307 6.816 142.125 7.69067 141.763 8.544C141.4 9.376 140.888 10.1227 140.227 10.784C139.565 11.4453 138.797 11.968 137.923 12.352C138.861 12.672 139.587 13.248 140.099 14.08C140.611 14.8907 140.867 15.84 140.867 16.928C140.867 17.9733 140.653 18.9333 140.227 19.808C139.8 20.6827 139.213 21.4293 138.467 22.048C137.72 22.6667 136.888 23.1467 135.971 23.488C135.053 23.8293 134.093 24 133.091 24H122.819L127.651 1.28ZM133.603 21.504C134.157 21.504 134.701 21.376 135.235 21.12C135.768 20.864 136.237 20.5227 136.643 20.096C137.069 19.648 137.4 19.1467 137.635 18.592C137.891 18.016 138.019 17.4293 138.019 16.832C138.019 16.256 137.912 15.7333 137.699 15.264C137.507 14.7947 137.219 14.4213 136.835 14.144C136.472 13.8453 136.024 13.696 135.491 13.696H127.875L126.243 21.504H133.603ZM135.139 11.36C135.672 11.36 136.184 11.2427 136.675 11.008C137.187 10.752 137.635 10.4107 138.019 9.984C138.424 9.55733 138.733 9.06667 138.947 8.512C139.181 7.95733 139.299 7.37067 139.299 6.752C139.299 5.89867 139.085 5.19467 138.659 4.64C138.253 4.064 137.677 3.776 136.931 3.776H129.987L128.387 11.36H135.139ZM140.15 28.896C141.046 28.768 141.771 28.5973 142.326 28.384C142.902 28.192 143.403 27.8827 143.83 27.456C144.257 27.0507 144.715 26.4853 145.206 25.76L146.134 24.352L142.902 7.296H145.814L148.118 21.472L149.206 19.68C150.102 18.208 150.859 16.9173 151.478 15.808C152.097 14.6987 152.619 13.6853 153.046 12.768C153.494 11.8293 153.867 10.9227 154.166 10.048C154.465 9.17333 154.742 8.256 154.998 7.296H157.782C157.505 8.32 157.195 9.28 156.854 10.176C156.513 11.072 156.107 12.0107 155.638 12.992C155.169 13.9733 154.571 15.0827 153.846 16.32C153.142 17.536 152.257 18.9973 151.19 20.704L148.63 24.832C147.905 26.0053 147.222 26.9867 146.582 27.776C145.942 28.5867 145.302 29.2373 144.662 29.728C144.043 30.2187 143.393 30.5707 142.71 30.784C142.049 31.0187 141.323 31.1467 140.534 31.168L140.15 28.896Z" fill="#222222"/>
</svg>
