<svg width="31" height="31" viewBox="0 0 31 31" fill="none" xmlns="http://www.w3.org/2000/svg">
<path d="M28.3823 30.0315C24.9101 30.0315 21.4795 29.2742 18.0907 27.7598C14.7018 26.2453 11.6184 24.0998 8.84066 21.3231C6.06288 18.5454 3.91732 15.462 2.40399 12.0731C0.890657 8.68424 0.133435 5.25369 0.132324 1.78146C0.132324 1.28146 0.298991 0.864797 0.632324 0.531464C0.965657 0.19813 1.38232 0.0314636 1.88232 0.0314636H8.63232C9.02121 0.0314636 9.36844 0.163686 9.67399 0.42813C9.97955 0.692575 10.1601 1.0048 10.2157 1.3648L11.299 7.19813C11.3545 7.64257 11.3407 8.01757 11.2573 8.32313C11.174 8.62869 11.0212 8.89257 10.799 9.1148L6.75732 13.1981C7.31288 14.2259 7.97232 15.2187 8.73566 16.1765C9.49899 17.1342 10.3395 18.0581 11.2573 18.9481C12.1184 19.8092 13.0212 20.6081 13.9657 21.3448C14.9101 22.0815 15.9101 22.7548 16.9657 23.3648L20.8823 19.4481C21.1323 19.1981 21.459 19.0104 21.8623 18.8848C22.2657 18.7592 22.6612 18.7248 23.049 18.7815L28.799 19.9481C29.1879 20.0592 29.5073 20.2609 29.7573 20.5531C30.0073 20.8454 30.1323 21.1715 30.1323 21.5315V28.2815C30.1323 28.7815 29.9657 29.1981 29.6323 29.5315C29.299 29.8648 28.8823 30.0315 28.3823 30.0315Z" fill="#FCFCFC"/>
</svg>
