<svg width="42" height="37" viewBox="0 0 42 37" fill="none" xmlns="http://www.w3.org/2000/svg">
<path d="M14.8405 15.3235L16.9715 19.6358H12.7096L14.8405 15.3235ZM41.0437 4.0326V35.239C41.0439 35.5051 40.9769 35.7668 40.849 35.9993C40.7211 36.2318 40.5366 36.4273 40.313 36.5672C40.0894 36.7072 39.8342 36.7869 39.5716 36.7989C39.309 36.8108 39.0477 36.7546 38.8126 36.6355L33.3369 33.862L27.8612 36.6355C27.6471 36.744 27.4109 36.8004 27.1715 36.8004C26.932 36.8004 26.6958 36.744 26.4817 36.6355L21.006 33.862L15.5303 36.6355C15.3162 36.744 15.08 36.8004 14.8405 36.8004C14.6011 36.8004 14.3649 36.744 14.1508 36.6355L8.67508 33.862L3.19939 36.6355C2.96431 36.7546 2.70305 36.8108 2.44044 36.7989C2.17783 36.7869 1.92261 36.7072 1.69902 36.5672C1.47544 36.4273 1.29093 36.2318 1.16302 35.9993C1.03512 35.7668 0.968074 35.5051 0.968262 35.239V4.0326C0.968262 3.20495 1.29305 2.4112 1.87117 1.82597C2.4493 1.24074 3.2334 0.911957 4.05099 0.911957H37.961C38.7786 0.911957 39.5627 1.24074 40.1408 1.82597C40.7189 2.4112 41.0437 3.20495 41.0437 4.0326ZM22.3855 23.6185L16.2201 11.136C16.0922 10.8763 15.8954 10.6579 15.6517 10.5052C15.408 10.3525 15.1271 10.2716 14.8405 10.2716C14.554 10.2716 14.273 10.3525 14.0294 10.5052C13.7857 10.6579 13.5889 10.8763 13.461 11.136L7.29556 23.6185C7.20498 23.8019 7.15097 24.0016 7.13661 24.2061C7.12225 24.4106 7.14783 24.616 7.21188 24.8105C7.27593 25.005 7.3772 25.1848 7.50991 25.3397C7.64262 25.4946 7.80416 25.6216 7.98532 25.7132C8.16648 25.8049 8.36371 25.8596 8.56575 25.8742C8.76778 25.8887 8.97067 25.8628 9.16282 25.798C9.35497 25.7331 9.53262 25.6306 9.68564 25.4963C9.83865 25.3619 9.96403 25.1984 10.0546 25.015L11.1682 22.7564H18.5128L19.6265 25.015C19.7171 25.1984 19.8424 25.3619 19.9954 25.4963C20.1485 25.6306 20.3261 25.7331 20.5183 25.798C20.7104 25.8628 20.9133 25.8887 21.1153 25.8742C21.3174 25.8596 21.5146 25.8049 21.6958 25.7132C21.8769 25.6216 22.0385 25.4946 22.1712 25.3397C22.3039 25.1848 22.4052 25.005 22.4692 24.8105C22.5333 24.616 22.5588 24.4106 22.5445 24.2061C22.5301 24.0016 22.4761 23.8019 22.3855 23.6185ZM36.4196 18.0755C36.4196 17.6617 36.2573 17.2648 35.9682 16.9722C35.6791 16.6796 35.2871 16.5152 34.8783 16.5152H31.7956V13.3945C31.7956 12.9807 31.6332 12.5838 31.3441 12.2912C31.055 11.9986 30.663 11.8342 30.2542 11.8342C29.8454 11.8342 29.4533 11.9986 29.1643 12.2912C28.8752 12.5838 28.7128 12.9807 28.7128 13.3945V16.5152H25.6301C25.2213 16.5152 24.8292 16.6796 24.5402 16.9722C24.2511 17.2648 24.0887 17.6617 24.0887 18.0755C24.0887 18.4893 24.2511 18.8862 24.5402 19.1788C24.8292 19.4714 25.2213 19.6358 25.6301 19.6358H28.7128V22.7564C28.7128 23.1703 28.8752 23.5671 29.1643 23.8598C29.4533 24.1524 29.8454 24.3168 30.2542 24.3168C30.663 24.3168 31.055 24.1524 31.3441 23.8598C31.6332 23.5671 31.7956 23.1703 31.7956 22.7564V19.6358H34.8783C35.2871 19.6358 35.6791 19.4714 35.9682 19.1788C36.2573 18.8862 36.4196 18.4893 36.4196 18.0755Z" fill="#FCFCFC"/>
</svg>
