<svg width="34" height="36" viewBox="0 0 34 36" fill="none" xmlns="http://www.w3.org/2000/svg">
<path d="M16.8971 13.1069C15.7291 13.1069 14.6354 13.56 13.8073 14.3881C12.9831 15.2162 12.526 16.31 12.526 17.478C12.526 18.6459 12.9831 19.7397 13.8073 20.5678C14.6354 21.392 15.7291 21.8491 16.8971 21.8491C18.0651 21.8491 19.1588 21.392 19.987 20.5678C20.8112 19.7397 21.2682 18.6459 21.2682 17.478C21.2682 16.31 20.8112 15.2162 19.987 14.3881C19.5825 13.9805 19.101 13.6574 18.5706 13.4374C18.0402 13.2175 17.4713 13.1051 16.8971 13.1069ZM33.0026 22.3061L30.4479 20.1225C30.569 19.3803 30.6315 18.6225 30.6315 17.8686C30.6315 17.1147 30.569 16.353 30.4479 15.6147L33.0026 13.4311C33.1956 13.2659 33.3337 13.0458 33.3986 12.8002C33.4635 12.5546 33.4521 12.2951 33.3659 12.0561L33.3307 11.9545C32.6276 9.98848 31.5742 8.16607 30.2213 6.57562L30.151 6.49359C29.9867 6.30044 29.7678 6.16159 29.523 6.09534C29.2783 6.02909 29.0192 6.03856 28.7799 6.1225L25.6081 7.2514C24.4362 6.29047 23.1315 5.53265 21.7174 5.00531L21.1041 1.6889C21.0579 1.43907 20.9367 1.20923 20.7567 1.02991C20.5767 0.850596 20.3463 0.730297 20.0963 0.684998L19.9909 0.665466C17.9596 0.298279 15.819 0.298279 13.7877 0.665466L13.6823 0.684998C13.4323 0.730297 13.2019 0.850596 13.0219 1.02991C12.8419 1.20923 12.7207 1.43907 12.6745 1.6889L12.0573 5.02094C10.6566 5.55248 9.35178 6.30846 8.19399 7.25922L4.99868 6.1225C4.75948 6.0379 4.5002 6.02809 4.2553 6.09437C4.01039 6.16066 3.79146 6.2999 3.62758 6.49359L3.55727 6.57562C2.20685 8.16777 1.15364 9.98972 0.447895 11.9545L0.412739 12.0561C0.236957 12.5444 0.381489 13.0912 0.77602 13.4311L3.36196 15.6381C3.24086 16.3725 3.18227 17.1225 3.18227 17.8647C3.18227 18.6147 3.24086 19.3647 3.36196 20.0912L0.783832 22.2983C0.590847 22.4635 0.452725 22.6835 0.387832 22.9291C0.32294 23.1748 0.334352 23.4343 0.420551 23.6733L0.455707 23.7748C1.16274 25.7397 2.20571 27.5561 3.56508 29.1537L3.63539 29.2358C3.79967 29.4289 4.01861 29.5678 4.26337 29.634C4.50813 29.7003 4.76722 29.6908 5.00649 29.6069L8.2018 28.4702C9.36586 29.4272 10.6627 30.185 12.0651 30.7084L12.6823 34.0405C12.7285 34.2903 12.8497 34.5201 13.0297 34.6995C13.2098 34.8788 13.4401 34.9991 13.6901 35.0444L13.7956 35.0639C15.8468 35.4331 17.9474 35.4331 19.9987 35.0639L20.1041 35.0444C20.3542 34.9991 20.5845 34.8788 20.7645 34.6995C20.9445 34.5201 21.0657 34.2903 21.112 34.0405L21.7252 30.7241C23.1393 30.1928 24.444 29.4389 25.6159 28.478L28.7877 29.6069C29.0269 29.6915 29.2862 29.7013 29.5311 29.635C29.776 29.5687 29.995 29.4295 30.1588 29.2358L30.2291 29.1537C31.5885 27.5483 32.6315 25.7397 33.3385 23.7748L33.3737 23.6733C33.5416 23.1889 33.3971 22.6459 33.0026 22.3061ZM16.8971 24.3452C13.1041 24.3452 10.0299 21.2709 10.0299 17.478C10.0299 13.685 13.1041 10.6108 16.8971 10.6108C20.6901 10.6108 23.7643 13.685 23.7643 17.478C23.7643 21.2709 20.6901 24.3452 16.8971 24.3452Z" fill="#FCFCFC"/>
</svg>
